<?xml version="1.0" encoding="UTF-8"?>
<svg id="Camada_2" data-name="Camada 2" xmlns="http://www.w3.org/2000/svg" viewBox="0 0 552.61 478.51">
  <defs>
    <style>
      .cls-1 {
        fill: #1994a6;
      }

      .cls-2 {
        fill: #ffa72c;
      }

      .cls-3 {
        fill: #020c25;
      }
    </style>
  </defs>
  <g id="Camada_1-2" data-name="Camada 1">
    <path class="cls-3" d="m254.09,328.91c0,.79,0,1.6-.02,2.43-.01.81-.17,1.59-.48,2.34-5.69,13.93-14,27.17-24.92,39.74-11.29,13-24.17,24.35-38.65,34.06-.33.22-.41.66-.2.98.05.08.12.14.2.2,26.47,17.54,54,33.54,82.59,48.01,1.57,1.78,3.42,2.12,5.54,1.01,27.55-14.36,54.36-29.97,80.45-46.83,12.71-8.21,25.07-16.94,37.06-26.17,7.27-5.59,12.65-11.14,16.14-16.63,3.67-5.79,5.77-12.1,6.28-18.94.43-5.64.19-10.89-.72-15.75-1.38-7.43-3.39-15.6-6.04-24.5-3.03-14.32-1.7-28.15,4-41.5,4.7-9.21,10.91-17.88,18.62-26,.59-.63.46-1-.39-1.12-3.91-.55-7.57-1.32-10.98-2.29-3.1-.89-4.91-1.44-5.42-1.67-1.91-.82-3.4-2.07-4.48-3.75-1.46-2.25-1.84-4.8-1.14-7.64.98-3.99,3.68-6.17,8.11-6.54,1.43-.11,3.35.24,5.77,1.07,6.03,2.07,12.1,2.71,18.2,1.94,8.12-1.03,16-3.72,23.63-8.06,5.25-2.99,9.39-6.78,12.43-11.38,3.15-4.75,4.39-10.16,3.73-16.23-.68-6.19-1.44-10.71-2.29-13.58-1.95-6.57-3.86-13.13-5.73-19.67-.08-.27-.36-.43-.62-.35,0,0,0,0,0,0-15.53,4.58-27.46.48-35.81-12.3l-1.79-3.59c-.2-.4-.68-.58-1.09-.39-7.63,3.45-15.01,6.98-22.14,10.61-8.62,4.39-15.95,7.57-21.98,9.55-12.77,4.19-25.47,4.03-38.08-.48-18.57-6.65-37.82-8.59-57.76-5.81-.38.05-.64.4-.59.78,0,.05.02.11.04.16,8.31,22,10.77,44.55,7.36,67.66-1,6.76-2.33,13.29-3.99,19.58-3.43,12.97-8.74,25.18-15.93,36.65-7.22,11.51-17.1,19.86-29.63,25.06l-11.75,2.58c-12.81.62-23.87-2.75-33.19-10.1-13.25-10.47-21.01-24.53-23.28-42.19-1.89-14.66,0-29.18,5.66-43.56,5.29-13.45,12.41-24.83,21.37-34.13,15.31-15.88,33.58-27.39,54.81-34.52.2-.07.31-.29.24-.5-.01-.03-.02-.06-.04-.09-12.27-18.81-28.29-33.54-48.04-44.2-9.25-5-19.09-8.57-29.5-10.72-.37-.08-.73.16-.8.53-.02.1-.02.2,0,.29,1.33,5.71,2,11.41,2.01,17.1,0,6.74-1.01,12.31-3.04,16.71-2.97,6.43-7.95,11.29-14.92,14.59-7.79,3.69-15.96,6.16-24.51,7.39-5.63.82-11.22,1.87-16.76,3.16-4.09.95-8.03,2.34-11.81,4.17-4.43,2.14-8,5.13-10.71,8.97-.57.81-1.98,3.67-4.22,8.56-2.96,6.46-7.08,11.94-12.37,16.44-2.25,1.91-7.42,5.09-15.51,9.56-5.21,2.88-10.47,5.95-15.79,9.2-1.07.65-1.59,1.61-1.54,2.86.29,8.59,2.04,16.74,5.23,24.45,2.43,5.87,4.71,10.56,6.83,14.07,3.71,6.15,8.77,11.02,15.19,14.61,5.65,3.16,11.82,5.91,18.5,8.25,5.15,1.8,7.76,2.71,7.83,2.74,4.1,1.49,6.87,2.45,8.3,2.88,10.16,3.03,18.78,7.24,25.87,12.63,9.31,7.08,15.75,16.27,19.31,27.57,1.45,4.59,2.37,9.65,2.78,15.16.4,5.47.25,10.65-.46,15.52-1.95,13.41-5.88,27.1-11.77,41.07-1.54,3.26-3.21,6.63-5.02,10.11-.92,1.77-2.03,3.05-3.34,3.83-3.31,1.97-6.54,2.12-9.69.45-.48-.25-2.83-2.09-7.04-5.51-21.32-17.27-41.06-36.19-59.22-56.76-20.77-23.53-37.71-48.92-50.8-76.19-6.97-14.53-12.52-30.37-16.65-47.52C1.15,190.9-.62,172.51.19,153.86c.85-19.69,4.93-38.67,12.23-56.94,9.82-24.57,25.35-45.62,46.6-63.16C80.79,15.78,105.51,4.98,133.16,1.35c6.65-.87,13.3-1.26,19.94-1.15,18.85.3,37.2,4.07,55.07,11.3.39.16.83.14,1.2-.05,3.72-1.88,7.5-2.61,11.33-2.19,2.42.27,5.88,1.57,10.38,3.91,8.01,4.15,13.08,6.99,15.22,8.5,5.67,4.01,8.44,9.33,8.31,15.94-.1,4.98-1.76,9.07-4.99,12.28-3.06,3.03-6.77,4.8-11.12,5.3-4.32.49-8.72-.43-13.2-2.77-5.19-2.7-10.32-5.51-15.39-8.44-5.55-3.21-8.92-8.08-10.1-14.62-.06-.34-.29-.63-.61-.75-25.52-10.17-51.17-12.22-76.94-6.15-6.38,1.5-12.71,3.58-18.99,6.23-26.13,11.04-46.7,28.66-61.72,52.86-11.29,18.17-18.41,38.05-21.38,59.62-.89,6.45-1.34,13.1-1.37,19.94-.06,16.31,2.04,32.4,6.3,48.25,4.29,15.97,10.24,31.3,17.85,45.98,12.33,23.81,27.55,45.9,45.66,66.27,16.12,18.14,33.3,34.68,51.55,49.62.16.13.4.11.53-.06.02-.03.04-.06.06-.09,5.27-12.05,8.47-24.2,9.61-36.47,1.76-18.95-4.8-32.87-19.69-41.76-2.78-1.65-7.14-3.45-13.07-5.38-8.82-2.88-17.54-6.04-26.15-9.48-8.02-3.2-14.86-6.85-20.53-10.94-5.97-4.32-11.09-10.05-15.35-17.19-6.31-10.59-10.68-21.93-13.1-34.02-1.43-7.1-1.88-14.01-1.36-20.73.23-3.01,1.58-5.5,4.04-7.47,6.69-5.36,14.08-10.14,22.15-14.34,2.63-1.37,5.92-3.24,9.87-5.63,3.7-2.23,6.93-5.75,9.69-10.56.49-.85,1.63-3.22,3.42-7.11,1.29-2.81,2.61-5.06,3.94-6.77,6.37-8.2,14.82-13.93,25.33-17.18,5.27-1.63,9.43-2.73,12.49-3.3,6.86-1.27,13.72-2.58,20.57-3.91,2.06-.41,4.07-.96,6.04-1.65,2.19-.77,4.04-1.7,5.55-2.78,5.17-3.69,7.72-8.95,7.66-15.8-.06-6.49-.96-13.08-2.71-19.77-1.19-4.55-1.66-7.59-1.43-9.12.44-2.93,2.05-5.02,4.83-6.29,1.75-.8,4.17-1.17,7.28-1.1,5.92.13,12.18,1.05,18.78,2.78,12.06,3.16,23.17,7.63,33.32,13.41,5.56,3.16,11.13,6.82,16.72,10.97,15.27,11.37,27.78,25.39,37.53,42.07.24.41.72.63,1.19.55,25.19-4.53,49.77-2.43,73.72,6.3,2.43.88,4.94,1.39,7.53,1.53,8.91.49,17.44-1.08,25.58-4.71,7.28-3.25,14.42-6.78,21.42-10.6,7.17-3.91,14.66-7.07,22.46-9.49,7.65-2.38,15.5-3.47,23.54-3.26,5.29.14,10.12,1.22,14.49,3.23,3.51,1.62,6.14,4.32,7.87,8.09,5.71,12.41,10.5,26.3,14.38,41.66,2.14,8.48,3.47,15.9,4,22.25.42,5.09-.33,10.26-2.26,15.5-1.69,4.61-4.25,9.05-7.68,13.32-4.59,5.71-10.09,10.39-16.52,14.05-3.83,2.17-6.5,3.86-8.02,5.05-5.35,4.19-10.83,9.15-16.46,14.89-6.19,6.33-11.24,12.7-15.15,19.13-4.54,7.47-7.01,15.45-7.4,23.92-.21,4.47.38,9.85,1.78,16.14,1.05,4.73,2.43,10,4.15,15.81,2.04,6.92,3,14.63,2.88,23.12,0,.34.12.39.37.16,10.07-9.31,20.7-20.4,31.87-33.28,14.73-16.97,27.43-35.35,38.1-55.14,6.79-12.59,12.4-25.69,16.82-39.3,6.97-21.48,9.98-43.52,9.02-66.12-1-23.45-7.44-45.85-19.31-67.19-9.98-17.93-23.53-32.93-40.64-45-5.47-3.87-11.21-7.25-17.2-10.16-32.99-16.03-67.39-17.28-103.2-3.77-.88.33-1.51,1.12-1.64,2.06-.85,6.13-4.02,10.81-9.51,14.06-1.4.83-5.03,2.71-10.88,5.66-5.85,2.94-9.44,4.58-10.76,4.93-4.13,1.09-8.23.71-12.3-1.15-3.83-1.75-6.69-4.45-8.6-8.1-1.82-3.47-2.5-7.14-2.04-11.01.44-3.63,1.87-6.8,4.29-9.51,1.41-1.58,4.13-3.54,8.16-5.87,8.71-5.04,14.27-8,16.69-8.89,5.49-2.01,10.62-1.71,15.37.88.56.3,1.22.34,1.81.1,11.75-4.71,23.44-7.98,35.08-9.82,6.43-1.01,13.07-1.54,19.92-1.58,32.43-.17,61.77,9.45,88.01,28.86,8.59,6.35,16.5,13.57,23.74,21.66,4.38,4.89,8.48,10.15,12.3,15.76,16.22,23.83,25.74,50.37,28.55,79.6,2.29,23.76.25,47.12-6.12,70.09-4.43,15.99-10.41,31.37-17.94,46.15-6.19,12.17-13.19,23.86-21,35.07-20.79,29.85-45.61,57.01-74.47,81.48-23.62,20.03-47.34,37.66-71.17,52.88-29.53,18.87-56.76,34.29-81.7,46.25-2.36,1.13-5.14.9-8.34-.71-34.19-17.11-68.46-37.46-102.79-61.04-1.85-1.27-3.18-2.75-3.98-4.43-.83-1.73-.97-3.6-.41-5.61.79-2.83,2.67-5.11,5.64-6.84,5.61-3.25,13.44-8.92,23.5-17.03,11.67-9.4,21.21-19.18,28.63-29.34,5.13-7.03,9.92-15.65,14.37-25.88,1.22-2.79,3.21-4.57,5.97-5.36,2.6-.73,5.02-.48,7.27.76,2.38,1.31,4.02,3.51,4.93,6.59Zm-25.92-146.07c-12.6,12.75-20.52,27.77-23.77,45.05-.95,5.05-1.32,9.72-1.11,14,.22,4.72,1,9.37,2.35,13.96,2.67,9.1,7.59,16.25,14.74,21.44,5.07,3.67,10.23,5.74,15.5,6.19,5.85.5,11.53-.94,17.04-4.31,4.61-2.82,8.41-6.41,11.39-10.77,4.52-5.62,8.31-12.36,11.36-20.23,5.16-13.27,8.35-26.46,9.57-39.55,1.69-18.19-1.1-36.01-8.37-53.47-.15-.37-.56-.56-.95-.45-18.57,5.38-34.49,14.76-47.75,28.14Z"/>
    <path class="cls-2" d="m241.61,302.15c-10.19,19.65-23.71,36.95-40.56,51.9-13.01,11.53-27.6,20.38-43.77,26.57,5.89-13.97,9.82-27.66,11.77-41.07.71-4.87.86-10.05.46-15.52-.41-5.51-1.33-10.57-2.78-15.16-3.56-11.3-10-20.49-19.31-27.57-7.09-5.39-15.71-9.6-25.87-12.63-1.43-.43-4.2-1.39-8.3-2.88-.07-.03-2.68-.94-7.83-2.74-6.68-2.34-12.85-5.09-18.5-8.25-6.42-3.59-11.48-8.46-15.19-14.61-2.12-3.51-4.4-8.2-6.83-14.07-3.19-7.71-4.94-15.86-5.23-24.45-.05-1.25.47-2.21,1.54-2.86,5.32-3.25,10.58-6.32,15.79-9.2,8.09-4.47,13.26-7.65,15.51-9.56,5.29-4.5,9.41-9.98,12.37-16.44,2.24-4.89,3.65-7.75,4.22-8.56,2.71-3.84,6.28-6.83,10.71-8.97,3.78-1.83,7.72-3.22,11.81-4.17,5.54-1.29,11.13-2.34,16.76-3.16,8.55-1.23,16.72-3.7,24.51-7.39,6.97-3.3,11.95-8.16,14.92-14.59,2.03-4.4,3.05-9.97,3.04-16.71,0-5.69-.68-11.39-2.01-17.1-.09-.37.14-.73.51-.82.1-.02.2-.02.29,0,10.41,2.15,20.25,5.72,29.5,10.72,19.75,10.66,35.77,25.39,48.04,44.2.12.19.07.43-.11.55-.03.02-.06.03-.09.04-21.23,7.13-39.5,18.64-54.81,34.52-8.96,9.3-16.08,20.68-21.37,34.13-5.66,14.38-7.55,28.9-5.66,43.56,2.27,17.66,10.03,31.72,23.28,42.19,9.32,7.35,20.38,10.72,33.19,10.1Zm-104.13-125.01c0-6.01-4.88-10.89-10.89-10.89s-10.89,4.88-10.89,10.89,4.88,10.89,10.89,10.89h0c6.01,0,10.89-4.88,10.89-10.89Z"/>
    <path class="cls-1" d="m438.94,139.79c-8.29,5.11-16.56,10.15-24.79,15.1-4.32,2.6-8.81,4.86-13.48,6.78-9.99,4.12-20.34,5.28-31.03,3.48-6.91-1.16-11.34-2.01-13.28-2.54-15.12-4.15-30.43-5.07-45.94-2.76-.34.05-.6.27-.65.55l-.59,3.65c-.03.21.13.41.37.44.04,0,.08,0,.12,0,11.49-1.27,22.79-.37,33.92,2.7,7.77,2.15,14.95,5.54,21.54,10.17,11.93,8.37,19.24,19.75,21.93,34.16.81,4.39,1.7,8.76,2.66,13.12,3.76,17.16,12.29,31.4,25.6,42.72-5.7,13.35-7.03,27.18-4,41.5-24.16.4-46.29,6.09-66.4,17.06-24.83,13.55-43.73,32.96-56.72,58.22-3.05,5.93-5.64,12.07-7.77,18.4-5.86,17.42-8.47,35.46-7.82,54.13-28.59-14.47-56.12-30.47-82.59-48.01-.33-.22-.41-.66-.2-.98.05-.08.12-.14.2-.2,14.48-9.71,27.36-21.06,38.65-34.06,10.92-12.57,19.23-25.81,24.92-39.74.31-.75.47-1.53.48-2.34.01-.83.02-1.64.02-2.43,2.71-9.87,2.47-19.65-.73-29.34,12.53-5.2,22.41-13.55,29.63-25.06,7.19-11.47,12.5-23.68,15.93-36.65,1.66-6.29,2.99-12.82,3.99-19.58,3.41-23.11.95-45.66-7.36-67.66-.14-.36.04-.76.4-.9.05-.02.1-.03.15-.04,19.94-2.78,39.19-.84,57.76,5.81,12.61,4.51,25.31,4.67,38.08.48,6.03-1.98,13.36-5.16,21.98-9.55,7.13-3.63,14.51-7.16,22.14-10.61.41-.19.89-.01,1.09.39l1.79,3.59Zm-108.46,74.16c1.04.73,2.1,1.18,3.19,1.35,1.07.18,2.15-.01,3.26-.58,2.86-1.46,4-4,3.43-7.61-1.38-8.71,1.62-12.98,9.01-12.81,2.14.05,4.18.66,6.12,1.83,1.55.94,3.34,2.18,5.37,3.73,2.8,2.13,5.39,2.32,7.77.57,1.55-1.13,2.44-2.62,2.68-4.45.27-2.03-.36-3.84-1.89-5.43-1.96-2.05-4.7-3.98-8.22-5.8-7.22-3.72-14.34-4.12-21.35-1.21-2.67,1.1-4.85,2.56-6.54,4.37-1.85,1.97-3.24,4.27-4.17,6.92-1.93,5.46-2.16,10.88-.68,16.26.33,1.2,1,2.15,2.02,2.86Z"/>
    <path class="cls-1" d="m264.31,268.4c-11.33,7.25-22.05,7.74-32.16,1.47-4.09-2.53-7.63-5.88-10.62-10.04-2.89-4.03-5.06-8.5-6.51-13.4-2.93-9.91-3.32-19.94-1.16-30.07,2.7-12.68,7.47-23.85,14.31-33.52,13.26-13.38,29.18-22.76,47.75-28.14.39-.11.8.08.95.45,7.27,17.46,10.06,35.28,8.37,53.47-1.22,13.09-4.41,26.28-9.57,39.55-3.05,7.87-6.84,14.61-11.36,20.23Z"/>
    <circle class="cls-3" cx="126.59" cy="177.14" r="10.89"/>
    <path class="cls-3" d="m330.48,213.95c-1.02-.71-1.69-1.66-2.02-2.86-1.48-5.38-1.25-10.8.68-16.26.93-2.65,2.32-4.95,4.17-6.92,1.69-1.81,3.87-3.27,6.54-4.37,7.01-2.91,14.13-2.51,21.35,1.21,3.52,1.82,6.26,3.75,8.22,5.8,1.53,1.59,2.16,3.4,1.89,5.43-.24,1.83-1.13,3.32-2.68,4.45-2.38,1.75-4.97,1.56-7.77-.57-2.03-1.55-3.82-2.79-5.37-3.73-1.94-1.17-3.98-1.78-6.12-1.83-7.39-.17-10.39,4.1-9.01,12.81.57,3.61-.57,6.15-3.43,7.61-1.11.57-2.19.76-3.26.58-1.09-.17-2.15-.62-3.19-1.35Z"/>
  </g>
</svg>